<svg xmlns="http://www.w3.org/2000/svg" width="25" height="25" viewBox="0 0 25 25">
    <defs>
        <style>.a{fill:#0f4f85;}.b{fill:none;}</style>
    </defs>
    <g transform="translate(-780.11 -737.331)">
        <g transform="translate(782.124 740.969)">
            <path class="a"
                  d="M811.347,760.459h-18.78a1.232,1.232,0,0,1-1.117-1.322h0a1.232,1.232,0,0,1,1.117-1.322h18.78a1.232,1.232,0,0,1,1.117,1.322h0A1.232,1.232,0,0,1,811.347,760.459Z"
                  transform="translate(-791.45 -757.816)"/>
            <path class="a"
                  d="M811.347,803.046h-18.78a1.232,1.232,0,0,1-1.117-1.322h0a1.232,1.232,0,0,1,1.117-1.322h18.78a1.232,1.232,0,0,1,1.117,1.322h0A1.232,1.232,0,0,1,811.347,803.046Z"
                  transform="translate(-791.45 -792.839)"/>
            <path class="a"
                  d="M811.347,845.606h-18.78a1.232,1.232,0,0,1-1.117-1.322h0a1.232,1.232,0,0,1,1.117-1.322h18.78a1.232,1.232,0,0,1,1.117,1.322h0A1.232,1.232,0,0,1,811.347,845.606Z"
                  transform="translate(-791.45 -827.841)"/>
        </g>
        <rect class="b" width="25" height="25" transform="translate(780.11 737.331)"/>
    </g>
</svg>
