<svg xmlns="http://www.w3.org/2000/svg" width="15" height="15" viewBox="0 0 15 15"><defs><style>.a{fill:none;}.b,.d{fill:#1994db;}.c,.d{stroke:none;}</style></defs><g transform="translate(-311 -172)"><g class="a" transform="translate(311 172)"><path class="c" d="M7.5,0A7.5,7.5,0,1,1,0,7.5,7.5,7.5,0,0,1,7.5,0Z"/><path class="d" d="M 7.5 1 C 3.915889739990234 1 1 3.915889739990234 1 7.5 C 1 11.08411026000977 3.915889739990234 14 7.5 14 C 11.08411026000977 14 14 11.08411026000977 14 7.5 C 14 3.915889739990234 11.08411026000977 1 7.5 1 M 7.5 0 C 11.64213943481445 0 15 3.35785961151123 15 7.5 C 15 11.64213943481445 11.64213943481445 15 7.5 15 C 3.35785961151123 15 0 11.64213943481445 0 7.5 C 0 3.35785961151123 3.35785961151123 0 7.5 0 Z"/></g><g transform="translate(314.462 176.615)"><path class="b" d="M404.578,839.245l-2.13-2.139a.776.776,0,1,1,1.1-1.1l1.028,1.032,4.2-4.226a.776.776,0,1,1,1.1,1.094Z" transform="translate(-402.223 -832.587)"/></g></g></svg>