<svg xmlns="http://www.w3.org/2000/svg" width="15.502" height="14.751" viewBox="0 0 15.502 14.751"><defs><style>.a{fill:#0f4f85;}</style></defs><g transform="translate(0 0)"><path class="a" d="M14.274,6.241,8.513.479a1.576,1.576,0,0,0-.4-.3A1.6,1.6,0,0,0,6.257.466L.464,6.258A1.586,1.586,0,1,0,2.708,8.5L5.815,5.4v8.459A1.624,1.624,0,0,0,7.2,15.49a1.586,1.586,0,0,0,1.785-1.565V5.438L12.07,8.523a1.59,1.59,0,0,0,2.411-.2A1.689,1.689,0,0,0,14.274,6.241Z" transform="translate(15.502 0) rotate(90)"/></g></svg>