<svg xmlns="http://www.w3.org/2000/svg" width="76" height="76" viewBox="0 0 76 76"><defs><style>.a{fill:#d0f3ff;}.b{fill:none;}</style></defs><g transform="translate(-7410 -962)"><path class="a" d="M48.8,116.253a8.566,8.566,0,0,0,1.135.446L39.3,127.329a4.382,4.382,0,0,1-6.194-6.194l6.705-6.705a8.749,8.749,0,0,0,1.92.21h3.42a1.317,1.317,0,0,1,.57.129Z" transform="translate(7395.164 909.285)"/><path class="a" d="M92.4,127.329a4.388,4.388,0,0,1-6.194,0L75.58,116.7a8.566,8.566,0,0,0,1.135-.446l3.076-1.484a1.317,1.317,0,0,1,.57-.129h3.42a8.749,8.749,0,0,0,1.92-.21l6.705,6.705A4.382,4.382,0,0,1,92.4,127.329Z" transform="translate(7374.981 909.285)"/><path class="a" d="M73.765,29.242l.753-3.307a5.108,5.108,0,0,0-.984-4.3l-2.119-2.656a5.087,5.087,0,0,1-.984-2.043l-.753-3.307a5.114,5.114,0,0,0-2.764-3.463L63.86,8.7a5.06,5.06,0,0,1-1.774-1.414L59.967,4.6a5.114,5.114,0,0,0-3.99-1.92H52.585a5.1,5.1,0,0,1-2.215-.505L47.315.707a5.119,5.119,0,0,0-4.431,0L39.83,2.18a5.1,5.1,0,0,1-2.215.505H34.222a5.113,5.113,0,0,0-3.99,1.92L28.119,7.261A5.13,5.13,0,0,1,26.34,8.7l-3.054,1.452a5.114,5.114,0,0,0-2.764,3.463l-.753,3.307a5.087,5.087,0,0,1-.984,2.043L16.666,21.6a5.108,5.108,0,0,0-.984,4.3l.753,3.307a5.054,5.054,0,0,1,0,2.269l-.753,3.307a5.108,5.108,0,0,0,.984,4.3l2.119,2.656a5.087,5.087,0,0,1,.984,2.043l.753,3.307a5.114,5.114,0,0,0,2.764,3.463L26.34,52.03a5.13,5.13,0,0,1,1.78,1.414L30.233,56.1a5.1,5.1,0,0,0,3.99,1.92h3.393a5.1,5.1,0,0,1,2.215.505L42.885,60a5.119,5.119,0,0,0,4.431,0l3.054-1.473a5.1,5.1,0,0,1,2.215-.505h3.393a5.1,5.1,0,0,0,3.99-1.92l2.119-2.656A5.06,5.06,0,0,1,63.86,52.03l3.054-1.473a5.113,5.113,0,0,0,2.764-3.463l.753-3.307a5.087,5.087,0,0,1,.984-2.043l2.119-2.656a5.108,5.108,0,0,0,.984-4.3l-.753-3.307a5.054,5.054,0,0,1,0-2.237ZM45.1,50.75a8.412,8.412,0,1,1,0,.022Z" transform="translate(7402.729 962.093)"/><rect class="b" width="76" height="76" transform="translate(7410 962)"/><path class="a" d="M38.777,11.787l.3-1.319a2.038,2.038,0,0,0-.393-1.716l-.845-1.06a2.029,2.029,0,0,1-.393-.815l-.3-1.319a2.04,2.04,0,0,0-1.1-1.381l-1.218-.586a2.018,2.018,0,0,1-.708-.564l-.845-1.068a2.04,2.04,0,0,0-1.592-.766H30.328a2.033,2.033,0,0,1-.884-.2L28.226.4a2.042,2.042,0,0,0-1.767,0L25.24.991a2.033,2.033,0,0,1-.884.2H23a2.04,2.04,0,0,0-1.592.766l-.843,1.06a2.046,2.046,0,0,1-.71.573L18.64,4.17a2.04,2.04,0,0,0-1.1,1.381l-.3,1.319a2.029,2.029,0,0,1-.393.815L16,8.739a2.038,2.038,0,0,0-.393,1.716l.3,1.319a2.016,2.016,0,0,1,0,.905L15.607,14A2.038,2.038,0,0,0,16,15.714l.845,1.06a2.029,2.029,0,0,1,.393.815l.3,1.319a2.04,2.04,0,0,0,1.1,1.381l1.218.588a2.046,2.046,0,0,1,.71.564l.843,1.06A2.033,2.033,0,0,0,23,23.266h1.353a2.033,2.033,0,0,1,.884.2l1.218.588a2.042,2.042,0,0,0,1.767,0l1.218-.588a2.033,2.033,0,0,1,.884-.2h1.353a2.033,2.033,0,0,0,1.592-.766l.845-1.06a2.018,2.018,0,0,1,.708-.564l1.218-.588a2.04,2.04,0,0,0,1.1-1.381l.3-1.319a2.029,2.029,0,0,1,.393-.815l.845-1.06A2.038,2.038,0,0,0,39.077,14l-.3-1.319a2.016,2.016,0,0,1,0-.892Zm-11.435,8.58a3.356,3.356,0,1,1,0,.009Z" transform="translate(7420.487 980.215)"/><circle class="a" cx="10" cy="10" r="10" transform="translate(7438 982)"/></g></svg>