<svg xmlns="http://www.w3.org/2000/svg" width="15.733" height="10.56" viewBox="0 0 15.733 10.56"><defs><style>.a{fill:#0f4f85;}</style></defs><g transform="translate(0 0)"><path class="a" d="M1994.039,705.568c-1.325,0-3.027-.811-5.06-2.411a28,28,0,0,1-2.591-2.323.807.807,0,0,1,0-1.11c.466-.483,4.637-4.716,7.65-4.716,1.324,0,3.024.808,5.053,2.4a27.719,27.719,0,0,1,2.586,2.315.807.807,0,0,1,0,1.109C2001.215,701.318,1997.053,705.568,1994.039,705.568Zm-6.016-5.288c.444.423,1.115,1.032,1.883,1.636,1.708,1.342,3.176,2.081,4.133,2.081s2.422-.739,4.127-2.081c.767-.6,1.436-1.214,1.88-1.636-.443-.421-1.112-1.028-1.879-1.629-1.7-1.337-3.171-2.073-4.128-2.073s-2.425.737-4.134,2.074C1989.137,699.252,1988.467,699.859,1988.023,700.28Z" transform="translate(-1986.167 -695.007)"/></g><g transform="translate(5.37 2.684)"><path class="a" d="M2041.934,722.213a1.018,1.018,0,1,1-.98,1.018,1,1,0,0,1,.98-1.018m0-1.57a2.59,2.59,0,1,0,2.492,2.588,2.541,2.541,0,0,0-2.492-2.588Z" transform="translate(-2039.443 -720.643)"/></g></svg>