<svg xmlns="http://www.w3.org/2000/svg" width="29.792" height="29.791" viewBox="0 0 29.792 29.791"><defs><style>.a{fill:#d0f3ff;}.b{fill:#1994db;}</style></defs><path class="a" d="M189.951,304v1.676h2.606l-.339,2.631h-2.266v6.722h-2.716V308.3h-2.258v-2.631h2.258v-1.936a3.161,3.161,0,0,1,3.374-3.468,18.586,18.586,0,0,1,2.024.1v2.347h-1.381C190.162,302.719,189.951,303.236,189.951,304Z" transform="translate(-173.969 -292.777)"/><path class="b" d="M147.167,264.745a15.279,15.279,0,0,0-14.4,14.434,14.829,14.829,0,0,0,2.984,9.4,1.055,1.055,0,0,0,1.586.1h0a1.05,1.05,0,0,0,.1-1.372,12.776,12.776,0,1,1,2.769,2.71,1.048,1.048,0,0,0-1.35.119h0a1.052,1.052,0,0,0,.12,1.6,14.9,14.9,0,1,0,8.183-26.994Z" transform="translate(-132.763 -264.737)"/></svg>