<svg xmlns="http://www.w3.org/2000/svg" width="47.032" height="47.548" viewBox="0 0 47.032 47.548">
    <defs>
        <style>.a{fill:#0f4f85;stroke:rgba(0,0,0,0);stroke-miterlimit:10;}.b{fill:#1994db;}.c{fill:none;}</style>
    </defs>
    <g transform="translate(0 0.5)">
        <g transform="translate(6.838 0)">
            <path class="a"
                  d="M14.708,41.492h0c-.037-.047-3.731-4.749-7.354-10.345A80.47,80.47,0,0,1,2.3,22.32C.773,19.122,0,16.561,0,14.708A14.712,14.712,0,0,1,28.261,8.983a14.616,14.616,0,0,1,1.156,5.725c0,1.853-.773,4.414-2.3,7.612a80.439,80.439,0,0,1-5.056,8.826c-3.622,5.6-7.317,10.3-7.354,10.345ZM14.693,7.931a7.378,7.378,0,1,0,2.881.582A7.354,7.354,0,0,0,14.693,7.931Z"
                  transform="translate(1.969)"/>
            <g transform="translate(0 36.397)">
                <path class="b"
                      d="M181.614,565.2c0,3.069-7.468,5.557-16.678,5.557s-16.678-2.488-16.678-5.557c0-2.278,4.119-4.236,10.017-5.094.794,1.141,1.544,2.182,2.2,3.085a23.55,23.55,0,0,0-8.126,2.008c1.658.864,5.407,2.058,11.348,2.208.4.007.811.013,1.234.013s.834-.007,1.234-.013c5.937-.15,9.69-1.344,11.345-2.208a23.576,23.576,0,0,0-8.129-2.008c.664-.9,1.414-1.944,2.208-3.085C177.491,560.963,181.614,562.918,181.614,565.2Z"
                      transform="translate(-148.258 -560.106)"/>
            </g>
        </g>
    </g>
</svg>
