<svg xmlns="http://www.w3.org/2000/svg" width="27.732" height="26.545" viewBox="0 0 27.732 26.545"><defs><style>.a,.c{fill:#f6b54f;}.b,.c{stroke:none;}</style></defs><g class="a" transform="translate(-374.763 -456.723)"><path class="b" d="M 396.5259704589844 482.7678833007812 C 396.4090270996094 482.7678833007812 396.2966918945312 482.729248046875 396.1920776367188 482.6530151367188 L 389.2283935546875 477.5776977539062 C 389.0526428222656 477.4498291015625 388.8453063964844 477.3823547363281 388.6284484863281 477.3823547363281 C 388.4115295410156 477.3823547363281 388.2041625976562 477.4498596191406 388.0287780761719 477.5776062011719 L 381.0648498535156 482.6530456542969 C 380.9602966308594 482.7292175292969 380.8479614257812 482.7678833007812 380.73095703125 482.7678833007812 C 380.5491638183594 482.7678833007812 380.366943359375 482.672607421875 380.2553405761719 482.5192260742188 C 380.1802368164062 482.416015625 380.1064758300781 482.2442932128906 380.1815185546875 482.0124206542969 L 382.8432006835938 473.7953491210938 C 382.9799194335938 473.3742370605469 382.8312072753906 472.9157409667969 382.4730529785156 472.6547546386719 L 375.5004272460938 467.5731811523438 C 375.1882934570312 467.345703125 375.2627258300781 467.0249938964844 375.2929992675781 466.93212890625 C 375.3232421875 466.8392639160156 375.4519653320312 466.5362854003906 375.8381958007812 466.5362854003906 L 384.4537658691406 466.5362854003906 C 384.8968811035156 466.5362854003906 385.2864074707031 466.2530822753906 385.4230346679688 465.8315734863281 L 388.0829772949219 457.6200561523438 C 388.2022399902344 457.2518310546875 388.5307006835938 457.2232055664062 388.6285400390625 457.2232055664062 C 388.7263488769531 457.2232055664062 389.0547485351562 457.2518005371094 389.1739501953125 457.6199645996094 L 391.8339233398438 465.8314819335938 C 391.9705810546875 466.2530822753906 392.360107421875 466.5362854003906 392.8032531738281 466.5362854003906 L 401.4186401367188 466.5362854003906 C 401.80517578125 466.5362854003906 401.9338989257812 466.8393249511719 401.9641418457031 466.9322204589844 C 401.994384765625 467.0250549316406 402.0687561035156 467.3456726074219 401.7565612792969 467.5731506347656 L 394.7838134765625 472.6547546386719 C 394.4257507324219 472.9157104492188 394.2770690917969 473.3741760253906 394.413818359375 473.7955932617188 L 397.075439453125 482.0125427246094 C 397.1505432128906 482.2442321777344 397.076904296875 482.4158325195312 397.0018920898438 482.5189819335938 C 396.8902893066406 482.6724853515625 396.7079162597656 482.7678527832031 396.5259704589844 482.7678833007812 Z"/><path class="c" d="M 388.6285400390625 457.7232055664062 C 388.5751342773438 457.7232055664062 388.5682067871094 457.7445678710938 388.5586242675781 457.7741394042969 L 385.8986511230469 465.9857482910156 C 385.6949768066406 466.6141052246094 385.1143188476562 467.0362854003906 384.4537658691406 467.0362854003906 L 375.8381958007812 467.0362854003906 C 375.8072814941406 467.0362854003906 375.784912109375 467.0362854003906 375.7684020996094 467.0870056152344 C 375.7518615722656 467.1377563476562 375.7699279785156 467.1509094238281 375.7948913574219 467.1690979003906 L 382.7675476074219 472.2506713867188 C 383.3009643554688 472.639404296875 383.5224304199219 473.3223266601562 383.31884765625 473.9494323730469 L 380.6572265625 482.1663818359375 C 380.6448364257812 482.2046813964844 380.6510620117188 482.2132263183594 380.6596374511719 482.2250671386719 C 380.6782836914062 482.2506713867188 380.7115783691406 482.2678833007812 380.7309875488281 482.2678833007812 C 380.7426452636719 482.2678833007812 380.7606811523438 482.2560119628906 380.7703552246094 482.2489624023438 L 387.7344055175781 477.1734313964844 C 387.9958801269531 476.9830017089844 388.3050537109375 476.8823547363281 388.6284484863281 476.8823547363281 C 388.9517211914062 476.8823547363281 389.2608032226562 476.98291015625 389.5228881835938 477.1736450195312 L 396.486572265625 482.2489318847656 C 396.4962768554688 482.2560119628906 396.5143127441406 482.2678833007812 396.5260314941406 482.2678833007812 C 396.5454711914062 482.2678833007812 396.5788269042969 482.2506408691406 396.5974731445312 482.2250061035156 C 396.6059875488281 482.2132873535156 396.6121520996094 482.2048034667969 396.5997924804688 482.1666259765625 L 393.938232421875 473.9499206542969 C 393.7345275878906 473.3222351074219 393.9559936523438 472.6393737792969 394.4893188476562 472.2506713867188 L 401.4620971679688 467.1690368652344 C 401.4871215820312 467.1508178710938 401.5051879882812 467.1376342773438 401.4887084960938 467.0870361328125 C 401.4721984863281 467.0362854003906 401.4497375488281 467.0362854003906 401.4186401367188 467.0362854003906 L 392.8032531738281 467.0362854003906 C 392.1426696777344 467.0362854003906 391.56201171875 466.6141052246094 391.3582763671875 465.9855651855469 L 388.6982421875 457.7739868164062 C 388.6886901855469 457.7445068359375 388.6818237304688 457.7232055664062 388.6285400390625 457.7232055664062 M 388.6285400390625 456.7232055664062 C 389.0589294433594 456.7232055664062 389.4893188476562 456.9707946777344 389.6496276855469 457.4659729003906 L 392.3096008300781 465.6773986816406 C 392.3789367675781 465.8913269042969 392.5782775878906 466.0362854003906 392.8032531738281 466.0362854003906 L 401.4186401367188 466.0362854003906 C 402.4579772949219 466.0362854003906 402.8908996582031 467.3652954101562 402.0509948730469 467.9772644042969 L 395.0782775878906 473.058837890625 C 394.8959655761719 473.1917114257812 394.8198547363281 473.4269409179688 394.889404296875 473.6412658691406 L 397.5511169433594 481.8584594726562 C 397.7952880859375 482.6118469238281 397.1966247558594 483.2678833007812 396.5260314941406 483.2678833007812 C 396.315673828125 483.2678833007812 396.0983276367188 483.203369140625 395.8976135253906 483.0570983886719 L 388.9338989257812 477.9817810058594 C 388.8428039550781 477.9154968261719 388.7356262207031 477.8823547363281 388.6284484863281 477.8823547363281 C 388.5213012695312 477.8823547363281 388.4141540527344 477.9154968261719 388.3231201171875 477.9817810058594 L 381.3593444824219 483.0570983886719 C 381.1586608886719 483.2033386230469 380.9412536621094 483.2678833007812 380.7309875488281 483.2678833007812 C 380.0604248046875 483.2678833007812 379.4619750976562 482.6119079589844 379.705810546875 481.8584594726562 L 382.3675231933594 473.6412658691406 C 382.4371032714844 473.4269409179688 382.3609313964844 473.1917114257812 382.1785888671875 473.058837890625 L 375.2059326171875 467.9772644042969 C 374.3663024902344 467.3652954101562 374.7991943359375 466.0362854003906 375.8381958007812 466.0362854003906 L 384.4537658691406 466.0362854003906 C 384.6786193847656 466.0362854003906 384.8780517578125 465.8913269042969 384.9473876953125 465.6773986816406 L 387.6072998046875 457.4659729003906 C 387.7677001953125 456.9707946777344 388.1981201171875 456.7232055664062 388.6285400390625 456.7232055664062 Z"/></g></svg>