<svg xmlns="http://www.w3.org/2000/svg" width="51" height="51" viewBox="0 0 51 51"><defs><style>.a{fill:none;}.b{fill:#1994db;}.c{fill:#0f4f85;}</style></defs><g transform="translate(-0.086 0.057)"><rect class="a" width="51" height="51" transform="translate(0.086 -0.057)"/><g transform="translate(5.483 1.506)"><path class="b" d="M395.009,188.909a6.821,6.821,0,0,1,6.5,4.8,23.308,23.308,0,0,1-11.674,5.03h-6.045a23.308,23.308,0,0,1-11.674-5.03,6.82,6.82,0,0,1,6.5-4.8h16.384m0-5.172H378.626a11.98,11.98,0,0,0-11.98,11.98h0a28.351,28.351,0,0,0,16.832,8.192h6.68a28.351,28.351,0,0,0,16.832-8.192h0a11.98,11.98,0,0,0-11.98-11.98Z" transform="translate(-366.646 -155.612)"/><g transform="translate(5.727 0)"><path class="c" d="M401.23,159.9a12.589,12.589,0,0,0,12.063-8.993H389.168A12.589,12.589,0,0,0,401.23,159.9Z" transform="translate(-386.699 -134.73)"/><path class="c" d="M411.161,116.874a2.128,2.128,0,0,0-2.154-1.942h-.194a12.616,12.616,0,0,0-4.088-5.765.344.344,0,0,0-.543.186l-.929,3.465a2.241,2.241,0,0,1-4.33-1.159l1-3.731a1.041,1.041,0,0,0-.839-1.291,12.61,12.61,0,0,0-4.4.011,1.037,1.037,0,0,0-.82,1.289l1,3.722a2.241,2.241,0,0,1-4.33,1.16l-.921-3.436a.344.344,0,0,0-.543-.184,12.617,12.617,0,0,0-4.052,5.735h-.482a2.123,2.123,0,0,0-2.148,1.962,2.067,2.067,0,0,0,1.943,2.17c0,.038,0,.076,0,.115H409.5c0-.048,0-.1,0-.144v0A2.07,2.07,0,0,0,411.161,116.874Z" transform="translate(-382.384 -106.448)"/></g></g></g></svg>