<svg xmlns="http://www.w3.org/2000/svg" width="60.375" height="59.5" viewBox="0 0 60.375 59.5"><defs><style>.a{fill:#0f4f85;}.b{fill:#1994db;}.c{fill:none;}</style></defs><g transform="translate(0.197 -0.4)"><g transform="translate(2.555 2.474)"><path class="a" d="M399.58,457.961l4.434,13.689a.865.865,0,0,0,.823.6H419.2a1.789,1.789,0,0,1,1.054,3.236l-11.624,8.471a.87.87,0,0,0-.315.971l4.437,13.7a1.79,1.79,0,0,1-2.756,2l-11.609-8.461a.865.865,0,0,0-1.018,0l-11.609,8.461a1.79,1.79,0,0,1-2.757-2l4.437-13.7a.87.87,0,0,0-.315-.971L375.5,475.484a1.79,1.79,0,0,1,1.054-3.236h14.363a.865.865,0,0,0,.823-.6l4.434-13.689A1.789,1.789,0,0,1,399.58,457.961Z" transform="translate(-366.292 -456.723)"/><path class="b" d="M423.472,553.779l-11.313,11.313a2.549,2.549,0,0,1-3.6-3.6L419.3,550.739Z" transform="translate(-385.309 -510.826)"/><path class="b" d="M383.063,561.644l-5.455,5.455a2.547,2.547,0,1,1-3.6-3.6l5.566-5.566a4.16,4.16,0,0,0,.785,2A4.36,4.36,0,0,0,383.063,561.644Z" transform="translate(-365.427 -514.964)"/><path class="b" d="M372.7,518.984l-13.538,13.539a2.546,2.546,0,0,1-3.6-3.6l12.974-12.974Z" transform="translate(-354.81 -490.806)"/></g><rect class="c" width="60.375" height="59.5" transform="translate(-0.197 0.4)"/></g></svg>