<svg xmlns="http://www.w3.org/2000/svg" width="33.523" height="33.523" viewBox="0 0 33.523 33.523"><defs><style>.a{fill:#0f4f85;}.b{fill:#1994db;}</style></defs><g transform="translate(-310 -2338)"><path class="a" d="M15.068.741,11.89.008a.738.738,0,0,0-.84.425L9.583,3.855a.732.732,0,0,0,.211.856l1.852,1.516A11.326,11.326,0,0,1,6.23,11.642L4.715,9.79a.733.733,0,0,0-.856-.211L.436,11.046a.742.742,0,0,0-.428.843l.733,3.178a.733.733,0,0,0,.715.568,14.178,14.178,0,0,0,14.18-14.18A.733.733,0,0,0,15.068.741Z" transform="translate(319.013 2347.013)"/><path class="b" d="M690.83,264.265a17.193,17.193,0,0,0-16.2,16.242,16.687,16.687,0,0,0,3.358,10.581,1.187,1.187,0,0,0,1.785.116h0a1.182,1.182,0,0,0,.118-1.544,14.377,14.377,0,1,1,3.116,3.05,1.18,1.18,0,0,0-1.519.134h0a1.184,1.184,0,0,0,.135,1.8,16.761,16.761,0,1,0,9.208-30.376Z" transform="translate(-364.621 2073.744)"/></g></svg>