<svg xmlns="http://www.w3.org/2000/svg" width="54.324" height="54.324" viewBox="0 0 54.324 54.324"><defs><style>.a{fill:none;}.b,.c{fill:#d6dfe8;}.b{stroke:#d6dfe8;}</style></defs><g transform="translate(-1300 -802)"><rect class="a" width="54.324" height="54.324" transform="translate(1300 802)"/><g transform="translate(1306.59 807.807)"><path class="b" d="M410.931,1083.882l-4.856-4.209a1.339,1.339,0,1,1,1.9-1.89l2.955,2.3,7.238-7.291a1.339,1.339,0,1,1,1.9,1.887Z" transform="translate(-392.367 -1057.24)"/><path class="c" d="M188.747,795.411a3.536,3.536,0,0,1,0-1.578l.53-2.317a3.542,3.542,0,0,0-.686-3l-1.483-1.858a3.537,3.537,0,0,1-.685-1.421l-.53-2.317a3.544,3.544,0,0,0-1.921-2.405l-2.144-1.031a3.545,3.545,0,0,1-1.235-.984l-1.483-1.858a3.552,3.552,0,0,0-2.776-1.335h-2.379a3.55,3.55,0,0,1-1.54-.351l-2.144-1.031a3.552,3.552,0,0,0-3.081,0l-2.144,1.031a3.553,3.553,0,0,1-1.54.351h-2.379a3.551,3.551,0,0,0-2.775,1.335l-1.484,1.858a3.548,3.548,0,0,1-1.235.984l-2.144,1.031a3.545,3.545,0,0,0-1.921,2.405l-.529,2.317a3.544,3.544,0,0,1-.686,1.421l-1.484,1.858a3.543,3.543,0,0,0-.685,3l.53,2.317a3.548,3.548,0,0,1,0,1.578l-.53,2.317a3.543,3.543,0,0,0,.685,3l1.484,1.858a3.546,3.546,0,0,1,.686,1.422l.529,2.317a3.547,3.547,0,0,0,1.921,2.406l2.144,1.031a3.553,3.553,0,0,1,1.235.984l1.484,1.858a3.552,3.552,0,0,0,2.775,1.335h2.379a3.558,3.558,0,0,1,1.54.351l2.144,1.031a3.555,3.555,0,0,0,3.081,0l2.144-1.031a3.556,3.556,0,0,1,1.54-.351h2.379a3.552,3.552,0,0,0,2.776-1.335l1.483-1.858a3.549,3.549,0,0,1,1.235-.984l2.144-1.031a3.547,3.547,0,0,0,1.921-2.406l.53-2.317a3.539,3.539,0,0,1,.685-1.422l1.483-1.858a3.542,3.542,0,0,0,.686-3ZM168.73,808.73a14.107,14.107,0,1,1,14.125-14.107A14.116,14.116,0,0,1,168.73,808.73Z" transform="translate(-148.094 -773.574)"/></g></g></svg>