<svg xmlns="http://www.w3.org/2000/svg" width="43" height="44" viewBox="0 0 43 44"><defs><style>.a{fill:#1994db;}.b{fill:#0f4f85;}.c{fill:none;}</style></defs><g transform="translate(-0.374 -0.065)"><g transform="translate(0 0)"><path class="a" d="M20.7,43.48H15.535a4.73,4.73,0,0,1-4.655-4.786V4.786A4.73,4.73,0,0,1,15.535,0H37.048A4.727,4.727,0,0,1,41.7,4.783v8.708a2.371,2.371,0,0,1-2.023,2.384,2.315,2.315,0,0,1-2.6-2.3V4.789a.208.208,0,0,0-.062-.164H15.528c.016,0-.034.05-.034.155V38.688a.2.2,0,0,0,.062.164h5.211a2.318,2.318,0,0,1,2.253,2.815A2.368,2.368,0,0,1,20.7,43.48Z" transform="translate(-7.592 0.107)"/><path class="a" d="M75.167,123.566,71.9,126.834a2.313,2.313,0,1,1-3.271-3.271l2.132-2.123.093.047.621.8a3.308,3.308,0,0,0,2.588,1.241H75.1Z" transform="translate(-46.949 -83.644)"/><path class="a" d="M113.386,126.62a2.315,2.315,0,0,1-3.271,0l-3.305-3.305h.822a3.3,3.3,0,0,0,2.591-1.241l.621-.8.31-.146,2.225,2.225A2.318,2.318,0,0,1,113.386,126.62Z" transform="translate(-73.751 -83.43)"/><path class="b" d="M87.026,73.155l.236-1.043a1.552,1.552,0,0,0-.31-1.331l-.655-.835a1.583,1.583,0,0,1-.31-.621l-.236-1.043a1.586,1.586,0,0,0-.853-1.068l-.962-.466a1.567,1.567,0,0,1-.549-.438l-.664-.835a1.58,1.58,0,0,0-1.241-.593H80.412a1.58,1.58,0,0,1-.683-.155l-.962-.466a1.58,1.58,0,0,0-1.369,0l-.962.466a1.583,1.583,0,0,1-.686.155H74.689a1.573,1.573,0,0,0-1.241.593l-.667.835a1.552,1.552,0,0,1-.546.438l-.965.466a1.574,1.574,0,0,0-.85,1.068l-.239,1.043a1.576,1.576,0,0,1-.31.621l-.642.835a1.583,1.583,0,0,0-.31,1.331l.239,1.043a1.574,1.574,0,0,1,0,.7L68.917,74.9a1.58,1.58,0,0,0,.31,1.331l.667.838a1.552,1.552,0,0,1,.31.621l.239,1.043a1.552,1.552,0,0,0,.85,1.068l.965.466a1.552,1.552,0,0,1,.546.438l.667.835a1.573,1.573,0,0,0,1.241.593h1.03a1.583,1.583,0,0,1,.686.155l.962.466a1.58,1.58,0,0,0,1.369,0l.962-.466a1.58,1.58,0,0,1,.683-.155h1.068a1.58,1.58,0,0,0,1.241-.593l.664-.835a1.567,1.567,0,0,1,.549-.438l.962-.466a1.58,1.58,0,0,0,.853-1.068l.236-1.043a1.552,1.552,0,0,1,.31-.621l.664-.838a1.552,1.552,0,0,0,.31-1.331l-.236-1.043A1.573,1.573,0,0,1,87.026,73.155Zm-8.938,6.629a6.272,6.272,0,1,1,6.272-6.272A6.272,6.272,0,0,1,78.087,79.784Z" transform="translate(-47.592 -44.104)"/><rect class="c" width="43" height="44" transform="translate(0.374 0.065)"/></g></g></svg>