<svg xmlns="http://www.w3.org/2000/svg" width="59" height="58.145" viewBox="0 0 59 58.145"><defs><style>.a{fill:#0f4f85;}.b{fill:#1994db;}.c{fill:none;}</style></defs><g transform="translate(0.197 -0.13)"><g transform="translate(4.234 4.37)"><path class="a" d="M629.145,122.868a7.62,7.62,0,1,1-7.619,7.62,7.628,7.628,0,0,1,7.619-7.62Zm0-5.316a12.936,12.936,0,1,0,12.936,12.936,12.936,12.936,0,0,0-12.936-12.936Z" transform="translate(-604.161 -115.553)"/><path class="b" d="M632.32,192.546a2.484,2.484,0,0,1,2.481,2.481v1.316a19.484,19.484,0,0,1-24.808,0v-1.316a2.484,2.484,0,0,1,2.481-2.481H632.32m0-5.316H612.473a7.8,7.8,0,0,0-7.8,7.8v3.637a24.793,24.793,0,0,0,35.441,0v-3.638a7.8,7.8,0,0,0-7.8-7.8Z" transform="translate(-597.412 -156.324)"/><g transform="translate(0 0)"><path class="a" d="M605.027,112.733a9.442,9.442,0,0,0-2.973,18.4,15.349,15.349,0,0,1-.393-3.47c0-.351.01-.694.035-1.038a5.561,5.561,0,0,1,3.331-10.016,5.4,5.4,0,0,1,1.18.128,15.5,15.5,0,0,1,3.637-2.686A9.386,9.386,0,0,0,605.027,112.733Z" transform="translate(-592.091 -112.733)"/><g transform="translate(0 21.101)"><path class="b" d="M598.023,163.6h-5.164a5.692,5.692,0,0,0-5.692,5.692v.96h3.881v-.96a1.812,1.812,0,0,1,1.811-1.811h7.609A15.471,15.471,0,0,1,598.023,163.6Z" transform="translate(-587.167 -163.596)"/></g></g><g transform="translate(32.218 0)"><path class="a" d="M669.642,112.733a9.442,9.442,0,0,1,2.973,18.4,15.342,15.342,0,0,0,.393-3.47c0-.351-.01-.694-.035-1.038a5.561,5.561,0,0,0-3.331-10.016,5.4,5.4,0,0,0-1.18.128,15.5,15.5,0,0,0-3.636-2.686A9.386,9.386,0,0,1,669.642,112.733Z" transform="translate(-664.825 -112.733)"/><g transform="translate(4.452 21.101)"><path class="b" d="M678,163.6h5.164a5.691,5.691,0,0,1,5.691,5.692v.96h-3.88v-.96a1.812,1.812,0,0,0-1.811-1.811h-7.609A15.48,15.48,0,0,0,678,163.6Z" transform="translate(-675.555 -163.596)"/></g></g></g><rect class="c" width="59" height="58.145" transform="translate(-0.197 0.13)"/></g></svg>