<svg xmlns="http://www.w3.org/2000/svg" width="59" height="59" viewBox="0 0 59 59"><defs><style>.a{fill:none;}.b{fill:#1994db;}.c{fill:#0f4f85;}</style></defs><g transform="translate(-0.059 -0.4)"><rect class="a" width="59" height="59" transform="translate(0.059 0.4)"/><g transform="translate(0.059 0.4)"><g transform="translate(10.321 2.207)"><path class="b" d="M615.429,468.187l4.654,4.653H636l4.663-4.652a1.962,1.962,0,0,0-1.385-3.351h-22.46A1.962,1.962,0,0,0,615.429,468.187Z" transform="translate(-609.229 -464.838)"/><path class="c" d="M639.617,525.454l-9.277-27.178h-6.219l9.885,28.96a3.66,3.66,0,0,1-.035,2.239,5.911,5.911,0,0,1-5.526,3.85h-15.3a5.863,5.863,0,0,1-5.613-4.106,3.583,3.583,0,0,1-.06-1.8l.044-.14,9.1-29h-6.168L601.9,525.511a3.364,3.364,0,0,0-.115.37,9.521,9.521,0,0,0,.136,5.113,11.776,11.776,0,0,0,11.225,8.216h15.3a11.775,11.775,0,0,0,11.048-7.7A9.546,9.546,0,0,0,639.617,525.454Z" transform="translate(-601.498 -484.2)"/><g transform="translate(13.184 21.514)"><path class="b" d="M641.4,531.983a2.25,2.25,0,0,0-.559-1.6,5.075,5.075,0,0,0-1.9-1.1,22.215,22.215,0,0,1-2.312-1,7.364,7.364,0,0,1-1.667-1.143,4.614,4.614,0,0,1-1.082-1.52,5.093,5.093,0,0,1-.387-2.078,4.615,4.615,0,0,1,1.328-3.407,5.607,5.607,0,0,1,3.53-1.549v-2.632h1.968v2.669a5.135,5.135,0,0,1,3.407,1.815,5.974,5.974,0,0,1,1.23,3.9H641.4a3.394,3.394,0,0,0-.609-2.208,2.011,2.011,0,0,0-1.63-.732,2.072,2.072,0,0,0-1.562.572,2.175,2.175,0,0,0-.554,1.58,2.079,2.079,0,0,0,.541,1.5A5.961,5.961,0,0,0,639.6,526.2a22.267,22.267,0,0,1,2.417,1.113,6.976,6.976,0,0,1,1.6,1.181,4.577,4.577,0,0,1,1,1.5,5.159,5.159,0,0,1,.344,1.962,4.592,4.592,0,0,1-1.3,3.394,5.72,5.72,0,0,1-3.591,1.537v2.448h-1.956V536.9a5.917,5.917,0,0,1-3.905-1.789,5.77,5.77,0,0,1-1.383-4.04h3.554a3.272,3.272,0,0,0,.695,2.245,2.534,2.534,0,0,0,2,.78,2.44,2.44,0,0,0,1.709-.572A1.984,1.984,0,0,0,641.4,531.983Z" transform="translate(-632.817 -515.945)"/></g></g><rect class="a" width="59" height="59"/></g></g></svg>