<svg xmlns="http://www.w3.org/2000/svg" width="44.355" height="44.355" viewBox="0 0 44.355 44.355"><defs><style>.a{fill:#0f4f85;}.b{fill:#1994db;}.c{fill:none;}</style></defs><g transform="translate(5.839 2.312)"><path class="a" d="M180.282,790.864a2.8,2.8,0,0,1,0-1.249l.419-1.835a2.8,2.8,0,0,0-.543-2.375l-1.175-1.471a2.8,2.8,0,0,1-.543-1.125l-.419-1.834a2.807,2.807,0,0,0-1.521-1.9l-1.7-.817a2.807,2.807,0,0,1-.978-.779L172.651,776a2.812,2.812,0,0,0-2.2-1.057H168.57a2.809,2.809,0,0,1-1.22-.278l-1.7-.816a2.813,2.813,0,0,0-2.439,0l-1.7.816a2.812,2.812,0,0,1-1.22.278h-1.884a2.812,2.812,0,0,0-2.2,1.057l-1.175,1.471a2.81,2.81,0,0,1-.978.779l-1.7.817a2.807,2.807,0,0,0-1.521,1.9l-.419,1.834a2.806,2.806,0,0,1-.543,1.125l-1.175,1.471a2.805,2.805,0,0,0-.543,2.375l.419,1.835a2.809,2.809,0,0,1,0,1.249l-.419,1.834a2.805,2.805,0,0,0,.543,2.375l1.175,1.471a2.808,2.808,0,0,1,.543,1.126l.419,1.834a2.809,2.809,0,0,0,1.521,1.9l1.7.816a2.814,2.814,0,0,1,.978.779l1.175,1.471a2.812,2.812,0,0,0,2.2,1.057H160.3a2.818,2.818,0,0,1,1.22.278l1.7.817a2.815,2.815,0,0,0,2.439,0l1.7-.817a2.816,2.816,0,0,1,1.22-.278h1.884a2.813,2.813,0,0,0,2.2-1.057L173.826,803a2.811,2.811,0,0,1,.978-.779l1.7-.816a2.808,2.808,0,0,0,1.521-1.9l.419-1.834a2.8,2.8,0,0,1,.543-1.126l1.175-1.471a2.8,2.8,0,0,0,.543-2.375ZM164.433,801.41a11.17,11.17,0,1,1,11.184-11.17A11.177,11.177,0,0,1,164.433,801.41Z" transform="translate(-148.094 -773.574)"/><path class="b" d="M162.437,876.374l-5.1,5.105A2.36,2.36,0,0,1,154,878.142l3.967-3.967.349.434a4.67,4.67,0,0,0,3.671,1.765Z" transform="translate(-151.666 -842.529)"/><path class="b" d="M226.154,881.6a2.358,2.358,0,0,1-3.338,0l-5.194-5.194h.488a4.67,4.67,0,0,0,3.671-1.765l.333-.418,4.039,4.039A2.36,2.36,0,0,1,226.154,881.6Z" transform="translate(-195.751 -842.563)"/></g><rect class="c" width="44.355" height="44.355" transform="translate(0 0)"/></svg>