<svg xmlns="http://www.w3.org/2000/svg" width="29.792" height="29.791" viewBox="0 0 29.792 29.791"><defs><style>.a{fill:#d0f3ff;}.b{fill:#1994db;}</style></defs><g transform="translate(9.171 9.739)"><path class="a" d="M729.9,313.923a4.317,4.317,0,0,0-.274-1.432,3.026,3.026,0,0,0-1.728-1.728,4.327,4.327,0,0,0-1.432-.274c-.632-.03-.833-.037-2.435-.037s-1.8.007-2.433.035a4.319,4.319,0,0,0-1.432.275,3.024,3.024,0,0,0-1.728,1.728,4.331,4.331,0,0,0-.275,1.432c-.03.632-.037.833-.037,2.436s.007,1.8.035,2.433a4.32,4.32,0,0,0,.274,1.432,3.025,3.025,0,0,0,1.728,1.728,4.327,4.327,0,0,0,1.432.274c.63.028.83.035,2.433.035s1.8-.007,2.433-.035a4.314,4.314,0,0,0,1.432-.274,3.02,3.02,0,0,0,1.728-1.728,4.327,4.327,0,0,0,.274-1.432c.028-.63.035-.83.035-2.433S729.924,314.553,729.9,313.923Zm-1.063,4.82a3.241,3.241,0,0,1-.2,1.1,1.959,1.959,0,0,1-1.121,1.121,3.249,3.249,0,0,1-1.1.2c-.623.028-.809.035-2.385.035s-1.764-.007-2.385-.035a3.233,3.233,0,0,1-1.1-.2,1.817,1.817,0,0,1-.678-.441,1.836,1.836,0,0,1-.441-.678,3.248,3.248,0,0,1-.2-1.1c-.028-.623-.035-.81-.035-2.385s.007-1.764.035-2.385a3.232,3.232,0,0,1,.2-1.1,1.8,1.8,0,0,1,.443-.678,1.83,1.83,0,0,1,.678-.44,3.25,3.25,0,0,1,1.1-.2c.623-.028.81-.035,2.385-.035s1.764.007,2.385.035a3.239,3.239,0,0,1,1.1.2,1.815,1.815,0,0,1,.678.44,1.835,1.835,0,0,1,.441.678,3.252,3.252,0,0,1,.2,1.1c.028.623.035.81.035,2.385S728.861,318.121,728.833,318.743Z" transform="translate(-718.122 -310.452)"/><path class="a" d="M734.775,324.072a3.033,3.033,0,1,0,3.033,3.033A3.034,3.034,0,0,0,734.775,324.072Zm0,5a1.967,1.967,0,1,1,1.967-1.967A1.968,1.968,0,0,1,734.775,329.072Z" transform="translate(-728.871 -321.201)"/><path class="a" d="M759.14,320.853a.708.708,0,1,1-.708-.708A.708.708,0,0,1,759.14,320.853Z" transform="translate(-749.375 -318.101)"/></g><path class="b" d="M689.025,264.264a15.279,15.279,0,0,0-14.4,14.434,14.829,14.829,0,0,0,2.984,9.4,1.055,1.055,0,0,0,1.586.1h0a1.05,1.05,0,0,0,.1-1.372,12.776,12.776,0,1,1,2.769,2.71,1.048,1.048,0,0,0-1.35.119h0a1.052,1.052,0,0,0,.12,1.6,14.9,14.9,0,1,0,8.183-26.994Z" transform="translate(-674.621 -264.256)"/></svg>