<svg xmlns="http://www.w3.org/2000/svg" width="29.792" height="29.791" viewBox="0 0 29.792 29.791"><defs><style>.a{fill:#d0f3ff;}.b{fill:#1994db;}</style></defs><g transform="translate(8.582 8.999)"><path class="a" d="M496.719,329.812v4.158H494.07v-4.158c0-1.14-.706-1.412-.977-1.412s-1.14.174-1.14,1.412v4.158h-2.747v-7.6h2.747v1.064a2.459,2.459,0,0,1,2.378-1.064C495.655,326.37,496.719,327.434,496.719,329.812Z" transform="translate(-484.136 -322.375)"/><path class="a" d="M468.044,308.722a1.338,1.338,0,0,1-1.5,1.3,1.3,1.3,0,0,1-1.39-1.3,1.322,1.322,0,0,1,1.487-1.3A1.3,1.3,0,0,1,468.044,308.722Z" transform="translate(-465.156 -307.419)"/><rect class="a" width="2.736" height="7.6" transform="translate(0.076 3.995)"/></g><path class="b" d="M438.853,264.745a15.279,15.279,0,0,0-14.4,14.434,14.83,14.83,0,0,0,2.984,9.4,1.055,1.055,0,0,0,1.586.1h0a1.05,1.05,0,0,0,.1-1.372,12.775,12.775,0,1,1,2.769,2.71,1.049,1.049,0,0,0-1.35.119h0a1.052,1.052,0,0,0,.12,1.6,14.9,14.9,0,1,0,8.183-26.994Z" transform="translate(-424.449 -264.737)"/></svg>