<svg xmlns="http://www.w3.org/2000/svg" width="204.507" height="49" viewBox="0 0 204.507 49"><defs><style>.a{fill:#fff;}</style></defs><path class="a" d="M124.939,42.82a24,24,0,0,1-11.759,2.846,16.267,16.267,0,0,1-6.033-1.087,12.825,12.825,0,0,1-4.7-3.053,14.228,14.228,0,0,1-3.119-4.709A15.814,15.814,0,0,1,98.2,30.712a16.428,16.428,0,0,1,1.125-6.261,14.686,14.686,0,0,1,3.119-4.812,13.733,13.733,0,0,1,4.7-3.053A16.268,16.268,0,0,1,113.18,15.5a23.073,23.073,0,0,1,6.084.776,12.251,12.251,0,0,1,5.062,2.794L120.593,22.9a9.1,9.1,0,0,0-3.323-2.07,11.94,11.94,0,0,0-4.09-.724,9.805,9.805,0,0,0-3.988.776,9.242,9.242,0,0,0-3.068,2.173,9.622,9.622,0,0,0-1.994,3.26,11.533,11.533,0,0,0-.716,4.036,12.5,12.5,0,0,0,.716,4.243,9.594,9.594,0,0,0,1.994,3.363,9.388,9.388,0,0,0,3.068,2.225,9.813,9.813,0,0,0,3.988.828,16.31,16.31,0,0,0,3.63-.362,10.477,10.477,0,0,0,3.016-1.138V32.782H114V28.177h10.839V42.82Z" transform="translate(-47.994 -7.48)"/><path class="a" d="M198.406,34.366v17.7a15.288,15.288,0,0,1-.665,4.76,8.918,8.918,0,0,1-1.994,3.622,9.1,9.1,0,0,1-3.374,2.277,13.636,13.636,0,0,1-4.857.828,17.872,17.872,0,0,1-5.062-.673,11.4,11.4,0,0,1-4.448-2.535l2.863-3.984a11.24,11.24,0,0,0,3.016,2.07,8.746,8.746,0,0,0,3.63.724,8.212,8.212,0,0,0,2.914-.466,4.69,4.69,0,0,0,1.892-1.345,5.224,5.224,0,0,0,1.023-2.07,10.669,10.669,0,0,0,.307-2.639v-1.4h-.1a6.649,6.649,0,0,1-2.761,2.121,9.158,9.158,0,0,1-3.528.724,9.731,9.731,0,0,1-3.937-.776,9.119,9.119,0,0,1-3.016-2.121,9.879,9.879,0,0,1-1.943-3.156,10.858,10.858,0,0,1-.665-3.881,11.52,11.52,0,0,1,.665-4.036,9.385,9.385,0,0,1,1.892-3.26,8.841,8.841,0,0,1,2.965-2.173,9.8,9.8,0,0,1,3.988-.776,8.447,8.447,0,0,1,3.783.828,6.182,6.182,0,0,1,2.812,2.587h.1v-2.9h4.5ZM188.13,38.246a6.3,6.3,0,0,0-2.3.414,4.745,4.745,0,0,0-1.789,1.19,5.519,5.519,0,0,0-1.176,1.811,7.032,7.032,0,0,0-.409,2.38,6.078,6.078,0,0,0,.409,2.173,4.618,4.618,0,0,0,1.176,1.759,5.181,5.181,0,0,0,1.789,1.19,5.477,5.477,0,0,0,2.25.466,6.038,6.038,0,0,0,2.4-.466,4.957,4.957,0,0,0,1.789-1.19,4.7,4.7,0,0,0,1.125-1.811,6.657,6.657,0,0,0,.409-2.277,5.66,5.66,0,0,0-1.534-4.139A5.575,5.575,0,0,0,188.13,38.246Z" transform="translate(-86.848 -16.359)"/><path class="a" d="M232.2,16.9h5.522l5.317,20.7h.1l6.391-20.7h4.959l6.237,20.7h.1L266.4,16.9h5.113l-8.231,28.717h-4.806l-6.544-21.835h-.1l-6.544,21.835h-4.653Z" transform="translate(-113.484 -8.156)"/><path class="a" d="M334.7,34.366h4.806v3.1h.1a5.767,5.767,0,0,1,2.3-2.639,6.3,6.3,0,0,1,3.426-.931,4.979,4.979,0,0,1,.869.1,6.9,6.9,0,0,1,.869.207v4.709c-.409-.1-.818-.207-1.176-.259a9.078,9.078,0,0,0-1.125-.1,5.138,5.138,0,0,0-2.71.621,5.4,5.4,0,0,0-1.585,1.449,4.44,4.44,0,0,0-.716,1.6,7.726,7.726,0,0,0-.2,1.242v10.4h-4.806V34.366Z" transform="translate(-163.579 -16.359)"/><path class="a" d="M366.706,45.9a4.979,4.979,0,0,0,1.687,3.415,5.216,5.216,0,0,0,3.477,1.242,6.062,6.062,0,0,0,3.017-.724,9.331,9.331,0,0,0,2.147-1.863l3.426,2.639a9.869,9.869,0,0,1-3.783,3,11.444,11.444,0,0,1-4.346.88,11.94,11.94,0,0,1-4.09-.724,9.55,9.55,0,0,1-3.323-2.07,9.4,9.4,0,0,1-2.2-3.208,11.146,11.146,0,0,1,0-8.382,10.174,10.174,0,0,1,2.2-3.208,9.55,9.55,0,0,1,3.323-2.07,11.94,11.94,0,0,1,4.09-.724,9.54,9.54,0,0,1,3.681.724,7.572,7.572,0,0,1,2.863,2.07,10.267,10.267,0,0,1,1.841,3.312,13.438,13.438,0,0,1,.665,4.5v1.345H366.706Zm9.867-3.674a4.58,4.58,0,0,0-1.329-3.363,4.949,4.949,0,0,0-3.579-1.242,4.652,4.652,0,0,0-3.425,1.242,5.562,5.562,0,0,0-1.534,3.363Z" transform="translate(-176.872 -16.456)"/><path class="a" d="M16.309,25.354a3.963,3.963,0,0,1-.051-.776,4.6,4.6,0,0,1,7.567-3.57l16.514-9.624L32.005,6.52,15.645,15.988a3.963,3.963,0,0,1,.051.776A4.635,4.635,0,1,1,14.162,13.3L28.938,4.657,20.962,0,0,12.263V34.926Z"/><path class="a" d="M26.827,36.724a5.768,5.768,0,0,1,.1.931,4.61,4.61,0,0,1-4.6,4.657,4.365,4.365,0,0,1-3.016-1.138L2.9,50.695l8.283,4.812L28,45.675a3.962,3.962,0,0,1-.051-.776,4.635,4.635,0,1,1,1.534,3.467L14.25,57.318l8.129,4.76L43.341,49.815V27.1Z" transform="translate(-1.417 -13.078)"/><ellipse class="a" cx="1.534" cy="1.552" rx="1.534" ry="1.552" transform="translate(9.561 15.212)"/><ellipse class="a" cx="1.534" cy="1.552" rx="1.534" ry="1.552" transform="translate(29.602 30.269)"/><ellipse class="a" cx="1.534" cy="1.552" rx="1.534" ry="1.552" transform="translate(19.326 23.025)"/><g transform="translate(81.854 8.537)"><path class="a" d="M163.168,22.3a2.989,2.989,0,0,0,2.2-.828,2.694,2.694,0,0,0,.92-2.07,2.619,2.619,0,0,0-.92-2.07,3.07,3.07,0,0,0-2.2-.828,3.115,3.115,0,0,0-2.2.88,2.831,2.831,0,0,0-.869,2.07,3.01,3.01,0,0,0,.869,2.07A3.443,3.443,0,0,0,163.168,22.3Zm.051-4.243a1.294,1.294,0,1,1-1.278,1.294A1.273,1.273,0,0,1,163.219,18.052Z" transform="translate(-160.1 -16.5)"/><rect class="a" width="4.806" height="19.455" transform="translate(0.716 9.469)"/></g><g transform="translate(160.129 8.537)"><path class="a" d="M316.268,22.3a2.989,2.989,0,0,0,2.2-.828,2.694,2.694,0,0,0,.92-2.07,2.619,2.619,0,0,0-.92-2.07,3.07,3.07,0,0,0-2.2-.828,3.115,3.115,0,0,0-2.2.88,2.831,2.831,0,0,0-.869,2.07,3.01,3.01,0,0,0,.869,2.07A3.34,3.34,0,0,0,316.268,22.3Zm0-4.243a1.294,1.294,0,1,1-1.278,1.294A1.273,1.273,0,0,1,316.268,18.052Z" transform="translate(-313.2 -16.5)"/><rect class="a" width="4.806" height="19.455" transform="translate(0.665 9.469)"/></g></svg>