<svg xmlns="http://www.w3.org/2000/svg" width="64" height="64" viewBox="0 0 64 64"><defs><style>.a{fill:none;}.b{fill:#d0f3ff;}</style></defs><rect class="a" width="64" height="64"/><g transform="translate(11.224 2.763)"><path class="b" d="M818.728,458.848l5.036,5.035h17.223l5.046-5.034a2.123,2.123,0,0,0-1.5-3.626h-24.3A2.123,2.123,0,0,0,818.728,458.848Z" transform="translate(-812.019 -455.224)"/><path class="b" d="M846,518.072l-10.039-29.41h-6.73L839.927,520a3.963,3.963,0,0,1-.038,2.423,6.4,6.4,0,0,1-5.979,4.166H817.35a6.344,6.344,0,0,1-6.074-4.443,3.88,3.88,0,0,1-.065-1.953l.047-.152,9.847-31.379h-6.675l-9.249,29.472a3.516,3.516,0,0,0-.125.4,10.3,10.3,0,0,0,.147,5.533,12.743,12.743,0,0,0,12.146,8.89h16.56a12.743,12.743,0,0,0,11.955-8.331A10.335,10.335,0,0,0,846,518.072Z" transform="translate(-804.749 -473.43)"/><g transform="translate(14.267 23.281)"><path class="b" d="M845.358,523.685a2.437,2.437,0,0,0-.605-1.737,5.5,5.5,0,0,0-2.056-1.191,24.046,24.046,0,0,1-2.5-1.085,7.982,7.982,0,0,1-1.8-1.238,4.962,4.962,0,0,1-1.171-1.644,5.511,5.511,0,0,1-.42-2.249,4.991,4.991,0,0,1,1.438-3.687,6.065,6.065,0,0,1,3.819-1.677v-2.848h2.129v2.888a5.56,5.56,0,0,1,3.687,1.963,6.469,6.469,0,0,1,1.33,4.226h-3.846a3.672,3.672,0,0,0-.659-2.389,2.177,2.177,0,0,0-1.763-.792,2.243,2.243,0,0,0-1.691.619,2.357,2.357,0,0,0-.6,1.71,2.251,2.251,0,0,0,.586,1.624,6.46,6.46,0,0,0,2.176,1.251,24.136,24.136,0,0,1,2.615,1.2,7.556,7.556,0,0,1,1.73,1.277,4.949,4.949,0,0,1,1.078,1.624,5.576,5.576,0,0,1,.373,2.123,4.967,4.967,0,0,1-1.411,3.673A6.185,6.185,0,0,1,843.908,529v2.648h-2.116v-2.635a6.4,6.4,0,0,1-4.225-1.936,6.241,6.241,0,0,1-1.5-4.372h3.846a3.539,3.539,0,0,0,.752,2.429,2.743,2.743,0,0,0,2.163.845,2.641,2.641,0,0,0,1.85-.619A2.149,2.149,0,0,0,845.358,523.685Z" transform="translate(-836.069 -506.331)"/></g></g><rect class="a" width="64" height="64"/></svg>