<svg xmlns="http://www.w3.org/2000/svg" width="59.562" height="58.63" viewBox="0 0 59.562 58.63"><defs><style>.a{fill:#d0f3ff;}</style></defs><g transform="translate(-233.95 -801.052)"><path class="a" d="M240.275,920.912H233.95V910.089a3.163,3.163,0,0,1,3.162-3.162h0a3.163,3.163,0,0,1,3.162,3.162Z" transform="translate(0 -61.231)"/><path class="a" d="M271.839,915.389h-6.325V900.537a3.163,3.163,0,0,1,3.162-3.162h0a3.163,3.163,0,0,1,3.162,3.162Z" transform="translate(-18.255 -55.708)"/><path class="a" d="M303.4,909.755h-6.325V890.8a3.162,3.162,0,0,1,3.162-3.163h0A3.163,3.163,0,0,1,303.4,890.8Z" transform="translate(-36.509 -50.074)"/><path class="a" d="M334.966,901.222h-6.325v-25.18a3.162,3.162,0,0,1,3.162-3.162h0a3.163,3.163,0,0,1,3.162,3.162Z" transform="translate(-54.764 -41.541)"/><path class="a" d="M366.53,894.022H360.2V863.593a3.162,3.162,0,0,1,3.162-3.163h0a3.162,3.162,0,0,1,3.162,3.163Z" transform="translate(-73.018 -34.341)"/><path class="a" d="M276,802.824h0a3.163,3.163,0,0,0,1.45,4.231l4.118,2.016-43.716,15.009a3.162,3.162,0,0,0-1.964,4.018h0a3.162,3.162,0,0,0,4.018,1.964l43.749-15.02-2.065,4.217a3.162,3.162,0,0,0,1.45,4.231h0a3.162,3.162,0,0,0,4.231-1.45l5.754-11.751a2.381,2.381,0,0,0-1.091-3.185l-11.7-5.73A3.163,3.163,0,0,0,276,802.824Z" transform="translate(-1.023)"/></g></svg>