<svg xmlns="http://www.w3.org/2000/svg" width="20" height="19.919" viewBox="0 0 20 19.919"><defs><style>.a{fill:#1994db;}.b{fill:none;}</style></defs><g transform="translate(1 1.186)"><g transform="translate(-1 -1.186)"><path class="a" d="M1.081,28.248a1.082,1.082,0,0,1-.748-1.864L7.07,19.935.854,13.5a1.082,1.082,0,0,1,1.2-1.75l17.155,7.215a1.082,1.082,0,0,1-.013,2l-17.706,7.2a1.085,1.085,0,0,1-.407.079Zm5-12.448,3.3,3.413a1.081,1.081,0,0,1-.03,1.533L5.926,24.027l10.03-4.08Z" transform="translate(0.002 -9.973)"/><rect class="b" width="19.919" height="19.919" transform="translate(0.081 0)"/></g></g></svg>