<svg xmlns="http://www.w3.org/2000/svg" width="20.836" height="20.836" viewBox="0 0 20.836 20.836"><defs><style>.a{fill:none;}.b{fill:#0f4f85;}.c{fill:#1994db;}</style></defs><g transform="translate(-3639.883 -848.737)"><path class="a" d="M3639.883,848.737h20.836v20.836h-20.836Z" transform="translate(0 0)"/><g transform="translate(3640.167 848.737)"><path class="b" d="M3659.676,860.176a7.248,7.248,0,0,0,0-2.042l2.2-1.719a.525.525,0,0,0,.125-.667l-2.083-3.6a.52.52,0,0,0-.458-.26.485.485,0,0,0-.177.031l-2.594,1.042a7.62,7.62,0,0,0-1.762-1.021l-.4-2.761a.508.508,0,0,0-.51-.437h-4.167a.508.508,0,0,0-.51.438l-.4,2.761a7.983,7.983,0,0,0-1.761,1.021l-2.594-1.042a.592.592,0,0,0-.187-.031.515.515,0,0,0-.448.26l-2.084,3.6a.513.513,0,0,0,.125.667l2.2,1.719a7.152,7.152,0,0,0,0,2.042L3642,861.9a.525.525,0,0,0-.125.667l2.084,3.6a.52.52,0,0,0,.458.26.486.486,0,0,0,.178-.031l2.594-1.042a7.607,7.607,0,0,0,1.761,1.021l.4,2.761a.508.508,0,0,0,.51.438h4.167a.508.508,0,0,0,.51-.437l.4-2.761a8.022,8.022,0,0,0,1.762-1.021l2.594,1.042a.587.587,0,0,0,.188.031.516.516,0,0,0,.447-.26l2.083-3.6a.524.524,0,0,0-.125-.667Zm-.886,3.782-1.323-.531-1.083-.437-.938.708a6.11,6.11,0,0,1-1.3.761l-1.1.448-.166,1.177-.209,1.406h-1.458l-.2-1.406-.167-1.177-1.1-.448a5.924,5.924,0,0,1-1.282-.74l-.948-.729-1.1.448-1.323.531-.729-1.261,1.125-.875.928-.729-.146-1.177c-.032-.323-.052-.562-.052-.771s.021-.448.052-.76l.146-1.177-.928-.729-1.125-.875.729-1.261,1.323.531,1.083.438.938-.708a6.107,6.107,0,0,1,1.3-.76l1.1-.448.166-1.177.208-1.406h1.448l.2,1.406.167,1.177,1.1.448a5.91,5.91,0,0,1,1.281.74l.949.729,1.1-.448,1.323-.531.729,1.26-1.114.886-.928.729.146,1.177a5.518,5.518,0,0,1,.052.76c0,.219-.021.448-.052.76l-.146,1.177.928.729,1.125.875Z" transform="translate(-3641.799 -848.737)"/><path class="c" d="M3690.173,895.542a3.473,3.473,0,1,0,3.473,3.473A3.471,3.471,0,0,0,3690.173,895.542Zm0,5.209a1.736,1.736,0,1,1,1.736-1.736A1.742,1.742,0,0,1,3690.173,900.751Z" transform="translate(-3680.039 -888.597)"/></g></g></svg>