<svg xmlns="http://www.w3.org/2000/svg" width="66.34" height="57.565" viewBox="0 0 66.34 57.565"><defs><style>.a{fill:#f6b54f;}</style></defs><g transform="translate(-917.844 -3183.452)"><path class="a" d="M38.749-54.426c0-9.561-7.324-13.833-13.833-13.833-.407-5.289,12-27.305,11.921-27.468-.841-10.1-27.992,24.416-27.992,40.081,0,11.392,7.12,15.664,14.647,15.664C30.815-39.983,38.749-44.662,38.749-54.426Z" transform="translate(909 3281)"/><path class="a" d="M38.749-54.426c0-9.561-7.324-13.833-13.833-13.833-.407-5.289,12-27.305,11.921-27.468-.841-10.1-27.992,24.416-27.992,40.081,0,11.392,7.12,15.664,14.647,15.664C30.815-39.983,38.749-44.662,38.749-54.426Z" transform="translate(945.436 3281)"/></g></svg>