<svg xmlns="http://www.w3.org/2000/svg" width="14.32" height="12.498" viewBox="0 0 14.32 12.498"><defs><style>.a{fill:#f0faff;}</style></defs><path class="a" d="M2635.831,738.742h-8.042v-.384a.721.721,0,0,0-.717-.724h-2.163a.721.721,0,0,0-.717.724v.384h-1.159a.765.765,0,0,0-.761.769h0a.765.765,0,0,0,.761.769h1.159v.263a.721.721,0,0,0,.717.724h2.163a.721.721,0,0,0,.717-.724v-.263h8.042a.765.765,0,0,0,.761-.769h0A.765.765,0,0,0,2635.831,738.742Zm-9.065,1.492h-1.55v-1.567h1.55Z" transform="translate(-2622.272 -737.634)"/><path class="a" d="M2635.831,781.744h-.758v-.318a.721.721,0,0,0-.717-.724h-2.162a.721.721,0,0,0-.717.724v.318h-8.445a.769.769,0,0,0,0,1.539h8.445v.329a.721.721,0,0,0,.717.724h2.162a.721.721,0,0,0,.717-.724v-.329h.758a.769.769,0,0,0,0-1.539Zm-1.781,1.558h-1.55v-1.566h1.55Z" transform="translate(-2622.272 -776.249)"/><path class="a" d="M2635.831,824.416h-8.042v-.324a.721.721,0,0,0-.717-.724h-2.163a.721.721,0,0,0-.717.724v.324h-1.159a.769.769,0,0,0,0,1.539h1.159v.323a.721.721,0,0,0,.717.724h2.163a.721.721,0,0,0,.717-.724v-.323h8.042a.769.769,0,0,0,0-1.539Zm-9.065,1.553h-1.55V824.4h1.55Z" transform="translate(-2622.272 -814.504)"/></svg>