<svg xmlns="http://www.w3.org/2000/svg" width="16.861" height="16.861" viewBox="0 0 16.861 16.861"><defs><style>.a{fill:#0f4f85;}.b{fill:#1994db;}.c{fill:none;}</style></defs><g transform="translate(-69.041 -101.489)"><g transform="translate(70.445 102.9)"><g transform="translate(10.22 10.207)"><path class="a" d="M168.548,202.213l-2.3-2.3,1.268-1.269,2.3,2.3a.9.9,0,0,1,0,1.269h0A.9.9,0,0,1,168.548,202.213Z" transform="translate(-166.247 -198.643)"/></g><path class="b" d="M87.4,115.079a4.825,4.825,0,1,1-4.825,4.825,4.83,4.83,0,0,1,4.825-4.825m0-1.794A6.619,6.619,0,1,0,94.02,119.9a6.619,6.619,0,0,0-6.619-6.619Z" transform="translate(-80.783 -113.285)"/></g><rect class="c" width="16.861" height="16.861" transform="translate(69.041 101.489)"/></g></svg>