<svg xmlns="http://www.w3.org/2000/svg" width="32" height="32" viewBox="0 0 32 32"><defs><style>.a{fill:#cbd5e0;}.b{fill:none;}</style></defs><g transform="translate(0.514 0.549)"><g transform="translate(-0.514 -0.549)"><path class="a" d="M27.832,20.17H3.562A3.562,3.562,0,0,0,0,23.732V38.873a3.562,3.562,0,0,0,3.562,3.562h4.9a1.67,1.67,0,0,0,1.67-1.67h0a1.67,1.67,0,0,0-1.67-1.67h-4.9a.223.223,0,0,1-.223-.223V23.732a.223.223,0,0,1,.223-.223H27.832a.223.223,0,0,1,.223.223V38.873a.223.223,0,0,1-.223.223h-4.9a1.67,1.67,0,0,0-1.67,1.67h0a1.67,1.67,0,0,0,1.67,1.67h4.9a3.562,3.562,0,0,0,3.562-3.562V23.732A3.562,3.562,0,0,0,27.832,20.17Z" transform="translate(0.327 -15.338)"/><path class="a" d="M50.533,54.058l-6.065-6.067a1.659,1.659,0,0,0-.419-.316,1.679,1.679,0,0,0-1.957.3l-6.1,6.1a1.67,1.67,0,1,0,2.363,2.36l3.271-3.269v8.906a1.71,1.71,0,0,0,1.461,1.721,1.67,1.67,0,0,0,1.879-1.648V53.212l3.246,3.249a1.674,1.674,0,0,0,2.538-.207A1.778,1.778,0,0,0,50.533,54.058Z" transform="translate(-27.273 -36.573)"/><rect class="b" width="32" height="32" transform="translate(0 0)"/></g></g></svg>