<?xml version="1.0" standalone="no"?>
<!DOCTYPE svg PUBLIC "-//W3C//DTD SVG 20010904//EN"
 "http://www.w3.org/TR/2001/REC-SVG-20010904/DTD/svg10.dtd">
<svg version="1.0" xmlns="http://www.w3.org/2000/svg"
 width="700.000000pt" height="700.000000pt" viewBox="0 0 700.000000 700.000000"
 preserveAspectRatio="xMidYMid meet">
<metadata>
Created by potrace 1.11, written by Peter Selinger 2001-2013
</metadata>
<g transform="translate(0.000000,700.000000) scale(0.100000,-0.100000)"
fill="#000000" stroke="none">
<path d="M3377 6930 c-65 -39 -122 -70 -128 -70 -5 0 -9 -4 -9 -10 0 -5 -4
-10 -8 -10 -5 0 -119 -64 -253 -141 -134 -78 -260 -150 -279 -161 -19 -11 -93
-54 -165 -96 -71 -41 -143 -83 -160 -92 -16 -9 -214 -124 -440 -255 -225 -130
-428 -247 -450 -260 -22 -12 -139 -80 -260 -150 -121 -70 -239 -138 -262 -151
-23 -13 -93 -54 -155 -90 -62 -37 -133 -78 -158 -92 -70 -38 -112 -63 -147
-86 l-33 -21 0 -1618 0 -1618 43 26 c23 14 53 31 67 38 14 6 27 14 30 17 3 3
84 51 180 107 96 55 255 147 353 204 201 118 188 110 282 164 39 22 78 44 87
50 9 5 67 39 129 75 124 72 133 77 239 139 41 24 170 99 285 166 116 68 226
132 245 144 19 11 41 24 49 27 16 8 355 205 359 209 2 2 4 48 4 102 0 124 18
206 69 309 81 166 245 301 419 345 78 19 83 20 170 20 146 0 266 -37 383 -119
l49 -33 86 49 c85 48 264 152 527 304 72 41 254 146 405 233 151 87 287 165
302 174 34 20 651 375 722 416 29 17 116 66 194 110 78 44 140 84 139 89 -2 7
-315 193 -437 259 -23 13 -243 140 -321 186 -82 48 -274 156 -284 160 -5 2
-17 9 -25 16 -8 6 -40 26 -70 43 l-55 31 -105 -59 c-58 -33 -112 -64 -120 -69
-8 -6 -43 -25 -77 -43 -35 -18 -63 -36 -63 -40 0 -5 -4 -8 -10 -8 -5 0 -213
-116 -462 -259 -249 -142 -466 -266 -483 -275 -16 -9 -43 -25 -60 -35 -16 -10
-55 -32 -85 -48 -30 -17 -126 -72 -214 -122 -87 -50 -162 -91 -167 -91 -5 0
-9 -4 -9 -8 0 -4 -12 -13 -27 -19 -16 -7 -48 -24 -73 -39 -62 -37 -235 -136
-295 -170 -120 -67 -110 -51 -111 -161 -2 -106 -4 -125 -29 -211 -63 -214
-241 -387 -460 -447 -78 -22 -218 -26 -304 -9 -306 58 -532 331 -533 643 -1
91 4 125 28 206 66 220 268 405 493 451 80 16 214 17 270 2 18 -5 41 -11 50
-13 43 -9 133 -51 198 -94 l71 -48 107 64 c59 34 109 63 111 63 2 0 37 19 77
43 125 75 333 195 627 365 91 52 201 116 245 142 44 26 100 59 125 72 25 14
86 49 135 78 50 29 108 63 130 75 48 28 534 311 555 324 8 5 13 11 10 14 -5 4
-477 277 -580 335 -25 14 -88 50 -140 80 -301 174 -420 242 -422 242 -2 -1
-56 -32 -121 -70z"/>
<path d="M6233 4826 c-155 -90 -287 -166 -295 -170 -7 -3 -29 -16 -48 -27 -19
-12 -215 -125 -435 -252 -521 -300 -629 -362 -750 -432 -55 -32 -120 -70 -145
-84 -123 -70 -345 -198 -378 -218 -20 -12 -36 -27 -34 -34 2 -7 5 -51 6 -98
13 -421 -347 -738 -769 -678 -100 15 -192 52 -279 114 l-49 35 -41 -20 c-23
-12 -63 -34 -91 -50 -27 -16 -90 -52 -138 -81 -49 -28 -91 -51 -93 -51 -3 0
-30 -16 -60 -35 -30 -19 -57 -35 -59 -35 -3 0 -22 -10 -43 -23 -20 -13 -62
-37 -92 -54 -30 -17 -251 -143 -490 -280 -541 -311 -542 -311 -560 -323 -8 -6
-22 -13 -30 -17 -16 -8 -226 -127 -250 -143 -8 -5 -35 -21 -60 -34 -25 -13
-112 -63 -194 -110 -82 -47 -153 -86 -158 -86 -18 0 -6 -19 19 -33 16 -7 118
-66 228 -129 110 -64 366 -210 568 -327 l369 -211 331 192 c183 105 370 213
417 241 47 27 101 59 120 70 19 10 80 45 135 77 55 32 116 67 135 78 27 15
766 443 955 552 17 10 73 42 125 72 52 31 121 70 152 88 l57 34 -2 80 c-4 213
55 361 202 506 58 58 96 85 161 117 266 129 559 83 766 -122 130 -129 197
-288 197 -470 0 -175 -67 -338 -188 -461 -144 -145 -299 -207 -500 -199 -139
5 -238 38 -366 125 l-56 38 -44 -25 c-307 -179 -534 -310 -570 -331 -19 -11
-117 -68 -219 -127 -102 -60 -201 -117 -220 -128 -19 -10 -75 -43 -125 -72
-49 -29 -106 -62 -125 -72 -19 -11 -129 -76 -245 -143 -115 -68 -219 -128
-230 -134 -86 -47 -415 -242 -415 -246 0 -3 79 -50 176 -105 96 -55 189 -108
207 -119 42 -24 311 -180 575 -332 l213 -124 122 72 c67 39 136 78 152 88 17
9 104 60 195 112 91 53 181 105 200 116 30 17 368 213 960 555 142 83 292 169
380 219 132 75 182 105 237 139 34 22 65 39 68 39 3 0 38 20 78 44 39 23 103
61 140 82 38 21 83 47 100 58 18 10 114 65 215 123 l182 105 0 1619 c0 890 -3
1619 -7 1619 -5 0 -135 -74 -290 -164z"/>
<path d="M2006 4814 c-96 -34 -157 -122 -152 -219 12 -225 308 -289 415 -90
40 76 24 187 -39 252 -52 56 -152 81 -224 57z"/>
<path d="M3435 3703 c-100 -22 -168 -112 -166 -220 1 -119 98 -213 218 -213
124 1 224 105 218 226 -8 142 -133 238 -270 207z"/>
<path d="M4925 2670 c-76 -19 -132 -66 -161 -136 -57 -137 54 -297 206 -297
185 0 287 214 169 356 -52 63 -141 95 -214 77z"/>
</g>
</svg>
